<svg width="221" height="48" viewBox="0 0 221 48" fill="none" xmlns="http://www.w3.org/2000/svg">
<path d="M60.0647 23.6036V27.5837H67.7892V28.0047C67.7892 29.6844 67.0909 31.0796 65.769 32.0423C64.5146 32.9547 62.7617 33.4375 60.6983 33.4375C55.5975 33.4375 53.1175 30.6988 53.1175 25.0663V23.9355C53.1175 21.1681 53.7842 19.0603 55.0974 17.6708C56.4179 16.2728 58.4295 15.5644 61.0748 15.5644C62.8723 15.5644 64.5103 16.0069 65.6857 16.8116C66.9429 17.6708 67.6283 18.8922 67.6743 20.3491H73.0481C73.005 17.5027 71.7751 15.1621 69.4862 13.5729C67.3309 12.0743 64.3566 11.284 60.8866 11.284C56.6363 11.284 53.3474 12.3774 51.1116 14.5356C48.8026 16.7642 47.6315 20.1164 47.6315 24.5002C47.6315 33.2708 51.8501 37.7179 60.171 37.7179C63.9327 37.7179 66.6297 36.7322 68.9157 34.5223L69.1298 34.3154L69.1815 34.6085L69.6471 37.2667H73.0496V23.6036H60.0647V23.6036Z" fill="white"/>
<path d="M94.726 19.7902C93.0779 18.145 90.5778 17.3116 87.2974 17.3116C84.0487 17.3116 81.5658 18.145 79.9163 19.7902C78.2193 21.4828 77.3586 24.0821 77.3586 27.5147C77.3586 30.9488 78.2193 33.5467 79.9163 35.2393C81.5658 36.8845 84.0487 37.7179 87.2974 37.7179C90.5778 37.7179 93.0779 36.8845 94.726 35.2393C96.4172 33.5538 97.275 30.9546 97.275 27.5147C97.275 24.0749 96.4172 21.477 94.726 19.7902ZM92.2416 27.9673C92.2416 30.0019 91.8681 31.4661 91.1008 32.4403C90.2918 33.4662 89.0489 33.9648 87.2974 33.9648C85.5646 33.9648 84.3317 33.4662 83.5285 32.4403C82.7641 31.4632 82.392 30.0005 82.392 27.9673V27.0621C82.392 22.9455 83.951 21.0273 87.2974 21.0273C89.0461 21.0273 90.2904 21.5316 91.1008 22.5719C91.8681 23.5547 92.2416 25.0246 92.2416 27.0621V27.9673Z" fill="white"/>
<path d="M117.822 19.7902C116.173 18.145 113.674 17.3116 110.394 17.3116C107.145 17.3116 104.66 18.145 103.012 19.7902C101.314 21.4828 100.453 24.0821 100.453 27.5147C100.453 30.9488 101.314 33.5467 103.012 35.2393C104.66 36.8845 107.145 37.7179 110.394 37.7179C113.674 37.7179 116.173 36.8845 117.822 35.2393C119.513 33.5538 120.371 30.9546 120.371 27.5147C120.371 24.0749 119.513 21.477 117.822 19.7902ZM115.336 27.9673C115.336 30.0019 114.964 31.4661 114.195 32.4403C113.388 33.4662 112.144 33.9648 110.394 33.9648C108.661 33.9648 107.426 33.4662 106.623 32.4403C105.86 31.4632 105.488 30.0005 105.488 27.9673V27.0621C105.488 22.9455 107.047 21.0273 110.394 21.0273C112.142 21.0273 113.386 21.5316 114.197 22.5719C114.964 23.5547 115.336 25.0246 115.336 27.0621V27.9673V27.9673Z" fill="white"/>
<path d="M137.378 10.3414V19.9497H136.909L136.863 19.8807C135.718 18.1996 133.757 17.3116 131.191 17.3116C128.859 17.3116 127.008 18.1349 125.69 19.7586C124.269 21.5101 123.549 24.1065 123.549 27.4774C123.549 34.1775 126.258 37.7179 131.379 37.7179C134.037 37.7179 136.1 36.6632 137.349 34.666L137.395 34.5913H137.882L137.904 34.7249L138.297 37.2667H142.299V10.3414H137.378ZM137.415 27.8912C137.415 31.7722 135.942 33.7392 133.037 33.7392C131.425 33.7392 130.293 33.2579 129.574 32.265C128.899 31.331 128.584 29.966 128.584 27.9674V27.1009C128.584 23.0289 129.916 21.2903 133.037 21.2903C135.901 21.2903 137.415 23.3392 137.415 27.213V27.8912Z" fill="white"/>
<path d="M160.163 17.7642L157.3 26.0218C156.897 27.1943 156.318 29.3122 155.851 31.0135C155.751 31.3799 155.656 31.7262 155.568 32.0408L155.537 32.1572H155.106L155.076 32.038C154.568 30.0867 153.748 27.2317 153.31 26.0247L150.445 17.7642H145.246L152.512 37.2667H157.794L165.098 17.7642H160.163V17.7642Z" fill="white"/>
<path d="M185.89 27.3265C185.89 23.901 185.106 21.3319 183.56 19.6925C182.048 18.0904 179.831 17.3116 176.779 17.3116C173.592 17.3116 171.163 18.145 169.555 19.7887C167.904 21.477 167.066 24.0763 167.066 27.5147C167.066 34.38 170.28 37.7179 176.893 37.7179C179.608 37.7179 181.862 37.09 183.409 35.9002C185.018 34.6617 185.853 32.8713 185.889 30.5738H181.08C181.011 32.8196 179.456 34.153 176.893 34.153C173.674 34.153 172.184 32.4676 172.062 28.6886L172.058 28.5248H185.89V27.3265ZM180.818 25.5247H172.118L172.138 25.3494C172.5 22.2558 173.954 20.8764 176.855 20.8764C178.663 20.8764 180.818 21.6552 180.818 25.3666V25.5247Z" fill="white"/>
<path d="M204.693 27.1742C203.38 26.3236 201.653 25.9098 199.983 25.5103C199.472 25.3867 198.989 25.2718 198.516 25.1425C198.315 25.0893 198.118 25.0361 197.927 24.9858C195.958 24.4643 194.405 24.0519 194.405 22.73C194.405 21.5575 195.798 20.8017 197.954 20.8017C200.19 20.8017 201.578 21.6839 201.578 23.1064V23.2501H206.3C206.311 23.0949 206.311 22.8061 206.311 22.6165C206.311 19.4439 203.044 17.3116 198.18 17.3116C195.657 17.3116 193.527 17.8145 192.024 18.7657C190.389 19.8017 189.559 21.2989 189.559 23.22C189.559 27.3653 193.483 28.3237 196.635 29.0938C196.966 29.18 197.292 29.2619 197.608 29.3395C199.962 29.9243 201.993 30.4287 201.993 32.1112C201.993 32.6084 201.71 34.2292 198.066 34.2292C195.479 34.2292 193.912 33.1846 193.878 31.4359V31.2894H189.116C189.107 31.3885 189.107 31.5207 189.107 31.6601C189.107 35.3399 192.565 37.7179 197.917 37.7179C200.656 37.7179 202.808 37.2451 204.314 36.3097C206.014 35.2551 206.876 33.6013 206.876 31.3957C206.876 29.5062 206.162 28.1254 204.693 27.1742Z" fill="white"/>
<path d="M220.177 21.4799V17.7642H216.559V12.1116H212.781L211.824 17.6334L211.801 17.7642H209.189V21.4799H211.638V32.8268C211.638 34.2593 212.047 35.4562 212.82 36.2896C213.699 37.2379 215.024 37.7179 216.756 37.7179C217.832 37.7179 219.33 37.4348 220.177 37.1604V33.9648H218.488C217.208 33.9648 216.559 33.2909 216.559 31.9604V21.4799H220.177Z" fill="white"/>
<path d="M33.2801 36.0568C32.1377 39.5038 29.9781 42.4666 27.0326 44.6291C24.0267 46.8347 20.4633 48 16.7246 48C12.9945 48 9.4368 46.8361 6.43664 44.6349C3.49539 42.4767 1.33579 39.5182 0.190613 36.0755C-0.129807 35.1128 -0.0435945 34.0438 0.429132 33.1457C0.870248 32.3066 1.38177 31.4905 1.95364 30.7146C2.79707 32.3512 3.88334 33.8153 5.18226 35.0683L5.30152 35.1832L5.41072 35.0596C8.20111 31.8985 11.1754 29.0737 14.2488 26.6612C14.9515 26.1109 15.8337 25.8077 16.7317 25.8077C17.6312 25.8077 18.512 26.1109 19.2161 26.6626C22.2981 29.0823 25.2696 31.9043 28.047 35.0496L28.0944 35.1027H28.2395L28.2855 35.0596C29.5916 33.7995 30.6765 32.3382 31.5156 30.7131C32.0803 31.4689 32.5932 32.2822 33.0401 33.1328C33.5114 34.028 33.599 35.0941 33.2801 36.0568Z" fill="white"/>
<path d="M31.0672 14.4077C31.0672 18.1823 29.6188 21.7328 26.9865 24.424C24.5596 21.819 22.0107 19.4668 19.4114 17.4337C18.6527 16.8374 17.7015 16.5098 16.7331 16.5098C15.7661 16.5098 14.8149 16.8374 14.0562 17.4337C11.4325 19.4855 8.88207 21.8362 6.47101 24.424C3.83294 21.727 2.38171 18.1765 2.38171 14.4077C2.38171 10.5741 3.87317 6.97048 6.58309 4.262C9.29157 1.55208 12.8952 0.0606232 16.7288 0.0606232C24.6344 0.0606232 31.0672 6.49632 31.0672 14.4077Z" fill="white"/>
</svg>
